#!OML:ASF E:\emotionWalksFemale\Project 1\Capture day 1\Session 1\Female1.ASF
:FULLY-SPECIFIED
:DEGREES
79
root 10.1086 13.5115 20.0597 197.425 3.99405 -178.514
lowerback 21.0054 2.89901 2.16433
upperback -1.27982 4.38591 -0.776755
thorax -13.0445 1.86824 -3.50128
lowerneck -7.9477 -3.32897 -8.30441
upperneck -14.5166 -4.49652 11.5867
head -2.52258 -2.84741 4.94228
rclavicle -5.87409e-014 1.25234e-014
rhumerus -27.4391 16.8982 -70.9189
rradius 43.0028
rwrist 6.69215
rhand -7.17125 -50.7434
rfingers 7.12502
rthumb 18.7061 -79.864
lclavicle -5.87409e-014 1.25234e-014
lhumerus -7.20767 32.145 70.3013
lradius 24.8146
lwrist -53.6066
lhand -4.17104 -28.0148
lfingers 7.12502
lthumb 21.5897 0.801716
rfemur -54.4768 -4.94125 25.9917
rtibia 74.8294
rfoot -29.3457 -18.5276
rtoes -9.6595
lfemur -54.7767 4.13428 -19.0524
ltibia 72.7732
lfoot -35.3692 11.4924
ltoes -54.6859
80
root 10.0902 13.4736 20.0422 197.314 4.53182 -178.361
lowerback 21.4612 2.661 2.10081
upperback -1.52682 4.06867 -0.690955
thorax -13.6284 1.70294 -3.31271
lowerneck -8.38555 -3.06921 -8.34005
upperneck -13.9218 -4.125 11.6964
head -2.30791 -2.63757 4.96366
rclavicle -9.34288e-015 2.18663e-015
rhumerus -29.0476 16.4961 -71.5088
rradius 43.0286
rwrist 7.63464
rhand -5.66069 -51.0586
rfingers 7.12502
rthumb 20.1585 -80.0327
lclavicle -9.34288e-015 2.18663e-015
lhumerus -4.65891 30.2197 73.1356
lradius 24.8105
lwrist -53.6469
lhand -4.52807 -29.7059
lfingers 7.12502
lthumb 21.2468 -0.850402
rfemur -54.7286 -4.6713 25.9019
rtibia 75.5687
rfoot -29.1075 -18.2365
rtoes -11.114
lfemur -54.8057 4.48068 -19.1033
ltibia 73.4489
lfoot -35.1274 12.1589
ltoes -55.1213
81
root 10.0708 13.4447 20.0231 197.247 5.23303 -178.155
lowerback 21.1989 2.4889 1.94307
upperback -1.45003 3.81443 -0.539651
thorax -13.4242 1.61413 -2.95152
lowerneck -8.61176 -2.78921 -8.49927
upperneck -13.8674 -3.74976 11.9147
head -2.28298 -2.46021 5.06224
rclavicle 3.43897e-014 1.59028e-015
rhumerus -30.5058 16.7276 -72.1585
rradius 43.1513
rwrist 6.20651
rhand -7.14191 -50.5595
rfingers 7.12502
rthumb 18.7343 -79.6774
lclavicle 3.43897e-014 1.59028e-015
lhumerus -1.18204 29.0319 76.5816
lradius 24.2078
lwrist -54.6118
lhand -5.14821 -30.016
lfingers 7.12502
lthumb 20.651 -1.09466
rfemur -54.934 -4.16975 25.8079
rtibia 76.1554
rfoot -28.9915 -17.8909
rtoes -12.0928
lfemur -54.7663 4.90821 -19.0824
ltibia 74.0274
lfoot -35.3336 12.3567
ltoes -54.917
82
root 10.0502 13.424 20.0013 197.181 5.99681 -177.935
lowerback 21.072 2.29798 1.80472
upperback -1.51164 3.53217 -0.441682
thorax -13.4536 1.49652 -2.66811
lowerneck -8.54296 -2.51156 -8.40509
upperneck -13.9715 -3.41436 11.9813
head -2.35834 -2.32015 5.07939
rclavicle 1.16289e-014 -8.44835e-015
rhumerus -32.113 16.7801 -72.7433
rradius 43.3604
rwrist 6.25026
rhand -5.97476 -50.6312
rfingers 7.12502
rthumb 19.8566 -79.6369
lclavicle 1.16289e-014 -8.44835e-015
lhumerus 2.01915 26.9015 79.6436
lradius 23.6461
lwrist -54.6888
lhand -5.75268 -30.0186
lfingers 7.12502
lthumb 20.0701 -1.03518
rfemur -55.0392 -3.60269 25.7014
rtibia 76.5709
rfoot -29.0006 -17.3654
rtoes -11.9724
lfemur -54.6149 5.35965 -19.0538
ltibia 74.4866
lfoot -35.532 12.6285
ltoes -54.6228
83
root 10.0266 13.4112 19.9768 197.03 6.84983 -177.778
lowerback 20.9599 2.0447 1.69261
upperback -1.52396 3.16513 -0.425018
thorax -13.4286 1.33715 -2.46394
lowerneck -8.669 -4.31481 -8.00329
upperneck -13.496 -2.70593 12.4701
head -2.20546 -0.577249 5.10264
rclavicle -2.30839e-014 7.30534e-015
rhumerus -33.4863 16.8565 -73.4212
rradius 43.9092
rwrist 5.16836
rhand -2.62112 -53.2287
rfingers 7.12502
rthumb 23.0775 -81.8667
lclavicle -2.30839e-014 7.30534e-015
lhumerus 4.65111 22.7842 81.7742
lradius 23.7188
lwrist -52.5227
lhand -5.70409 -31.4453
lfingers 7.12502
lthumb 20.1168 -2.46677
rfemur -54.9678 -3.0779 25.5346
rtibia 76.7913
rfoot -28.8624 -17.0094
rtoes -12.492
lfemur -54.2742 5.80534 -19.1112
ltibia 74.838
lfoot -35.6098 13.1402
ltoes -54.5468
84
root 9.99888 13.4024 19.9471 196.859 7.8306 -177.676
lowerback 20.599 1.72504 1.58175
upperback -1.34118 2.7057 -0.453278
thorax -13.032 1.14665 -2.26588
lowerneck -9.12096 -4.12398 -8.00786
upperneck -13.3803 -2.37963 12.7693
head -2.12351 -0.398685 5.19806
rclavicle -1.77291e-014 1.51573e-015
rhumerus -34.8415 17.2634 -74.2389
rradius 44.2948
rwrist 4.7771
rhand -3.26089 -52.8618
rfingers 7.12502
rthumb 22.4636 -81.5753
lclavicle -1.77291e-014 1.51573e-015
lhumerus 7.33272 18.3101 83.3504
lradius 23.9917
lwrist -50.0277
lhand -5.54333 -31.9997
lfingers 7.12502
lthumb 20.2713 -3.03754
rfemur -54.7995 -2.51317 25.3031
rtibia 76.8348
rfoot -28.5889 -16.824
rtoes -13.1345
lfemur -53.8478 6.217 -19.2484
ltibia 75.1189
lfoot -35.6723 13.6119
ltoes -54.2057
85
root 9.96831 13.3997 19.9126 196.801 8.88475 -177.468
lowerback 20.4828 1.45979 1.42178
upperback -1.42108 2.32084 -0.343378
thorax -13.0856 0.981796 -1.92919
lowerneck -9.3056 -3.90251 -8.15207
upperneck -13.3401 -2.03545 13.0311
head -2.10829 -0.222415 5.31069
rclavicle 1.46604e-014 -1.98785e-016
rhumerus -36.9664 17.8277 -74.8473
rradius 45.6089
rwrist 4.06808
rhand -4.72807 -52.5965
rfingers 7.12502
rthumb 21.0547 -81.4735
lclavicle 1.46604e-014 -1.98785e-016
lhumerus 9.39377 14.1889 84.5764
lradius 24.3763
lwrist -48.0734
lhand -5.77115 -32.6818
lfingers 7.12502
lthumb 20.0523 -3.69652
rfemur -54.5952 -1.8151 25.1678
rtibia 76.6659
rfoot -28.4293 -16.5917
rtoes -13.7349
lfemur -53.4408 6.67154 -19.2981
ltibia 75.3281
lfoot -35.6216 14.0575
ltoes -53.8304
86
root 9.93333 13.4072 19.8768 196.778 9.98706 -177.111
lowerback 20.2939 1.25889 1.4714
upperback -1.55033 2.06413 -0.281226
thorax -13.1365 0.857917 -1.80393
lowerneck -9.07983 -3.80107 -8.15359
upperneck -13.5324 -1.87021 13.3357
head -2.20924 -0.159389 5.41521
rclavicle 1.3418e-014 1.78906e-015
rhumerus -39.432 18.2605 -75.5676
rradius 47.2354
rwrist 3.15643
rhand -4.41813 -53.1031
rfingers 7.12502
rthumb 21.3524 -81.9467
lclavicle 1.3418e-014 1.78906e-015
lhumerus 10.8504 9.21028 85.0095
lradius 25.1942
lwrist -45.8314
lhand -6.3929 -33.2377
lfingers 7.12502
lthumb 19.4546 -4.19101
rfemur -54.2283 -1.01725 25.1672
rtibia 76.2577
rfoot -28.2254 -16.435
rtoes -14.5598
lfemur -52.9844 7.15382 -19.2003
ltibia 75.4175
lfoot -35.5978 14.5645
ltoes -53.7285
87
root 9.89773 13.4276 19.8419 196.789 11.1477 -176.744
lowerback 20.3023 1.05767 1.44021
upperback -1.85511 1.78689 -0.216815
thorax -13.5095 0.721607 -1.63324
lowerneck -8.9078 -3.784 -8.15294
upperneck -13.3614 -1.88877 13.7271
head -2.17301 -0.202586 5.53765
rclavicle 5.06901e-015 7.95139e-016
rhumerus -42.1359 19.0064 -76.5924
rradius 48.818
rwrist 1.98221
rhand -3.17015 -53.763
rfingers 7.12502
rthumb 22.5507 -82.466
lclavicle 5.06901e-015 7.95139e-016
lhumerus 12.057 4.66679 85.2267
lradius 25.994
lwrist -44.2681
lhand -6.56354 -34.4756
lfingers 7.12502
lthumb 19.2905 -5.41235
rfemur -53.8148 -0.158623 25.1597
rtibia 75.6403
rfoot -27.7833 -16.3082
rtoes -14.9929
lfemur -52.4886 7.61058 -19.0898
ltibia 75.2885
lfoot -35.5507 15.0819
ltoes -53.5146
88
root 9.86617 13.4641 19.8033 196.853 12.4473 -176.511
lowerback 19.1751 0.673096 1.64874
upperback -1.4305 1.27687 -0.482633
thorax -12.3688 0.4856 -1.85795
lowerneck -9.58657 -3.90753 -7.94825
upperneck -13.4559 -1.89279 14.3746
head -2.07473 -0.169691 5.70459
rclavicle 2.14687e-014 1.07344e-014
rhumerus -43.4171 19.4903 -77.6569
rradius 50.5413
rwrist 1.47063
rhand -4.64944 -53.7811
rfingers 7.12502
rthumb 21.1302 -82.6497
lclavicle 2.14687e-014 1.07344e-014
lhumerus 14.9693 0.703711 84.8419
lradius 26.4578
lwrist -43.0946
lhand -5.40279 -34.2845
lfingers 7.12502
lthumb 20.4064 -5.33669
rfemur -53.4185 0.709447 25.013
rtibia 74.8137
rfoot -27.0709 -16.2092
rtoes -15.7909
lfemur -51.8779 8.05913 -19.1344
ltibia 74.869
lfoot -35.3042 15.749
ltoes -53.2857
